HIERARCHY
ROOT Hips
{
  OFFSET 179.979 97.3047 303.174
  CHANNELS 6 Xposition Yposition Zposition Zrotation Xrotation Yrotation
  JOINT Spine
  {
    OFFSET 0.000859786 9.92346 -1.22733
    CHANNELS 3 Zrotation Xrotation Yrotation
    JOINT Spine1
    {
      OFFSET 0 11.732 0
      CHANNELS 3 Zrotation Xrotation Yrotation
      JOINT Spine2
      {
        OFFSET 0 13.4588 0
        CHANNELS 3 Zrotation Xrotation Yrotation
        JOINT Neck
        {
          OFFSET 2.54812e-05 15.0278 0.877907
          CHANNELS 3 Zrotation Xrotation Yrotation
          JOINT Head
          {
            OFFSET 0 10.3218 3.14243
            CHANNELS 3 Zrotation Xrotation Yrotation
            End Site
            {
              OFFSET 0 0 0
            }
          }
        }
        JOINT LeftShoulder
        {
          OFFSET 6.10582 9.10629 0.757062
          CHANNELS 3 Zrotation Xrotation Yrotation
          JOINT LeftArm
          {
            OFFSET 0 12.9223 0
            CHANNELS 3 Zrotation Xrotation Yrotation
            JOINT LeftForeArm
            {
              OFFSET 0 27.4047 0
              CHANNELS 3 Zrotation Xrotation Yrotation
              JOINT LeftHand
              {
                OFFSET -1.28204e-05 27.6145 0
                CHANNELS 3 Zrotation Xrotation Yrotation
                End Site
                {
                  OFFSET 0 0 0
                }
              }
            }
          }
        }
        JOINT RightShoulder
        {
          OFFSET -6.1057 9.10638 0.757076
          CHANNELS 3 Zrotation Xrotation Yrotation
          JOINT RightArm
          {
            OFFSET 0 12.9223 0
            CHANNELS 3 Zrotation Xrotation Yrotation
            JOINT RightForeArm
            {
              OFFSET 0 27.4047 0
              CHANNELS 3 Zrotation Xrotation Yrotation
              JOINT RightHand
              {
                OFFSET 1.28428e-05 27.6145 1.44975e-05
                CHANNELS 3 Zrotation Xrotation Yrotation
                End Site
                {
                  OFFSET 0 0 0
                }
              }
            }
          }
        }
      }
    }
  }
  JOINT LeftUpLeg
  {
    OFFSET 9.12387 -6.65719 -0.0554031
    CHANNELS 3 Zrotation Xrotation Yrotation
    JOINT LeftLeg
    {
      OFFSET 0 40.5994 0
      CHANNELS 3 Zrotation Xrotation Yrotation
      JOINT LeftFoot
      {
        OFFSET 0 42.099 0
        CHANNELS 3 Zrotation Xrotation Yrotation
        JOINT LeftToeBase
        {
          OFFSET 0 15.7216 0
          CHANNELS 3 Zrotation Xrotation Yrotation
          End Site
          {
            OFFSET 0 0 0
          }
        }
      }
    }
  }
  JOINT RightUpLeg
  {
    OFFSET -9.12503 -6.6556 -0.0553527
    CHANNELS 3 Zrotation Xrotation Yrotation
    JOINT RightLeg
    {
      OFFSET 0 40.5994 0
      CHANNELS 3 Zrotation Xrotation Yrotation
      JOINT RightFoot
      {
        OFFSET 0 42.099 0
        CHANNELS 3 Zrotation Xrotation Yrotation
        JOINT RightToeBase
        {
          OFFSET 0 15.7216 0
          CHANNELS 3 Zrotation Xrotation Yrotation
          End Site
          {
            OFFSET 0 0 0
          }
        }
      }
    }
  }
}
MOTION
Frames:	18
Frame Time:	0.0333333
282.187 90.9775 86.7505 5.43965 2.79343 -175.172 1.34305 -5.02265 -1.68015 2.74036 3.8557 -3.73403 3.17881 10.436 -3.78713 6.05818 -0.724829 -3.39992 -4.05074 -4.9445 -1.29266 -100.992 -11.9419 90.7837 74.2163 40.6571 -26.8899 85.7215 -3.92875 0.80736 7.66447 -9.28324 24.6351 106.841 -21.988 -88.4581 7.71988 44.398 -53.9784 -34.5338 -16.9133 0.977186 0.959133 -9.31944 -6.27199 -174.483 -9.16482 -5.13452 2.08839 -48.1444 0.409985 -1.15056 61.8286 -2.21828 -0.965257 26.367 -3.6023 -178.343 31.6384 6.68308 7.21139 -46.0061 8.40075 -16.9378 73.702 11.8551 0.963545 26.3682 3.55536 
282.031 91.7442 83.0964 5.56366 3.08365 -175.046 1.56318 -4.94971 -1.41284 3.17401 3.9997 -3.26195 3.55737 10.5834 -3.30898 6.19268 -0.622659 -3.16375 -4.61838 -4.6927 -0.906792 -102.252 -13.3641 90.5277 69.318 46.6763 -22.0976 86.3748 -3.78085 0.833229 7.39315 -9.45005 24.3931 108.06 -22.0136 -88.364 3.92019 47.87 -48.4905 -32.5321 -17.5271 0.987309 2.14097 -10.2603 -4.54899 -173.937 -2.37893 -4.60067 2.66041 -59.6893 0.0935684 1.228 53.9051 -2.69371 -0.965257 26.367 -3.6023 -178.135 28.1672 6.07016 7.95875 -45.29 8.96318 -19.228 76.2215 14.8367 0.963545 26.3682 3.55536 
281.819 92.9221 79.6153 5.24793 3.3449 -175.329 1.64636 -4.87997 -0.974243 3.32695 4.14879 -2.40933 3.61064 10.7374 -2.44439 6.28463 -0.00906366 -2.89717 -4.90309 -5.0999 -0.553671 -103.098 -14.7568 90.2432 62.2338 52.5375 -13.932 84.2492 -5.1145 0.72297 6.54204 -7.15892 31.0721 109.18 -21.4965 -88.4278 -0.710496 50.9455 -43.6528 -31.7402 -17.1878 0.968055 3.24521 -12.5227 -2.76764 -173.626 4.34438 -4.90034 3.61573 -69.0471 0.536606 2.16057 55.7246 -3.63427 -0.965257 26.367 -3.6023 -177.998 23.8853 4.68303 8.3218 -42.5756 9.26898 -21.2595 77.3032 17.3266 0.963545 26.3682 3.55536 
281.497 94.374 76.0857 4.47584 3.59237 -175.944 1.62065 -4.80778 -0.44093 3.25748 4.30932 -1.33687 3.41556 10.902 -1.35614 5.50462 0.337083 -2.52634 -4.08637 -5.00955 -0.493313 -104.262 -15.9423 89.9767 52.2924 56.7618 -1.60389 79.5201 -7.7918 0.488568 6.14303 -6.97737 39.9944 108.811 -20.8187 -88.639 -6.14211 54.5302 -40.7041 -32.0927 -17.396 0.978998 4.54955 -12.1698 -3.09022 -173.653 10.8026 -6.32433 5.00309 -75.0127 1.3145 4.29001 58.0485 -4.70438 -0.965257 26.367 -3.6023 -178.409 18.7879 3.85276 7.91411 -38.362 8.49811 -21.0873 77.5644 17.4035 0.963545 26.3682 3.55536 
281.135 95.6027 72.5925 3.57416 3.31482 -176.674 1.49348 -4.82764 0.116112 2.98157 4.287 -0.185666 3.00456 10.8815 -0.187143 4.63416 0.481414 -2.54385 -3.661 -5.32053 -0.799307 -105.299 -17.4154 89.6177 41.5138 59.1374 12.156 72.7453 -11.2125 0.172435 6.386 -9.93202 44.3108 108.145 -20.0278 -88.8907 -12.296 57.0596 -39.1414 -34.2868 -17.8939 1.015 3.87057 -12.787 -4.76261 -173.45 17 -7.9425 4.13214 -77.2608 -0.33299 4.80331 57.9724 -5.89645 -0.965257 26.367 -3.6023 -179.116 14.3507 3.362 7.25887 -34.1316 7.41763 -19.7032 77.5832 16.344 0.963545 26.3682 3.55536 
280.836 96.5887 68.9996 2.9088 2.99844 -177.407 1.40383 -4.83571 0.665764 2.78118 4.28515 0.940002 2.67213 10.8788 0.955847 2.97246 0.249303 -2.35589 -2.11894 -5.74865 -1.29485 -105.668 -18.2794 89.4005 30.5235 60.6316 23.8706 64.7251 -14.0942 -0.146616 6.59606 -11.332 42.2669 107.471 -18.8456 -89.2328 -18.4273 58.2314 -37.1631 -38.0401 -18.7365 1.07392 1.81686 -12.8342 -8.84061 -173.112 22.3702 -10.1078 3.71728 -76.7201 -1.42185 7.14128 58.8116 -6.85368 -0.965257 26.367 -3.6023 -179.497 9.82467 2.77687 6.48961 -29.5865 6.47062 -18.2368 77.3442 15.329 0.963545 26.3682 3.55536 
280.466 97.1146 65.4491 2.16261 2.60364 -178.112 1.24617 -4.7887 1.20429 2.44459 4.39063 2.06128 2.20396 10.9808 2.0948 1.48617 -0.601876 -2.42834 -1.37098 -6.51381 -1.86698 -106.246 -18.9892 89.2054 21.61 60.1824 32.2549 56.8264 -15.8227 -0.395884 1.52488 -12.2163 33.25 105.979 -17.6866 -89.5753 -25.0166 59.0076 -33.3452 -43.2936 -18.9781 1.11067 0.608712 -11.9844 -14.513 -172.771 27.0077 -11.1568 0.144436 -73.5625 -5.10936 6.70974 58.7648 -7.29552 -0.965257 26.367 -3.6023 179.653 5.97506 2.89623 5.99411 -26.2108 5.4846 -16.3987 77.5205 13.8746 0.963545 26.3682 3.55536 
280.165 97.2207 62.0424 2.00898 2.33544 -178.495 1.1766 -4.65824 1.66215 2.28489 4.65977 2.99518 1.93439 11.2451 3.04498 0.469936 -1.52203 -2.50217 -0.611817 -6.90546 -2.30356 -106.58 -19.5023 89.0628 15.9029 58.5357 36.9033 49.0178 -15.8473 -0.542622 -4.72587 -13.5956 22.1837 105.27 -16.6055 -89.8503 -31.0421 57.7583 -28.0957 -49.6808 -18.6817 1.1189 -0.882839 -10.2434 -20.2874 -171.858 30.627 -11.9808 -2.28468 -68.1862 -6.8975 6.51626 60.4624 -7.22039 -0.965257 26.367 -3.6023 179.257 2.81024 2.61126 6.20297 -23.7824 5.23904 -16.2513 77.9429 13.9804 0.963545 26.3682 3.55536 
279.841 97.0234 58.6124 1.77041 2.5531 -178.235 1.06197 -4.38682 1.96854 2.03564 5.20552 3.63719 1.60905 11.7865 3.70144 -0.1604 -1.8605 -2.74513 -0.00639664 -8.12592 -2.78844 -105.982 -19.8065 89.0161 14.4921 57.2704 39.1985 39.5683 -15.3828 -0.651221 -10.4478 -12.148 11.4986 104.61 -15.7497 -90.0576 -36.3372 55.7712 -22.118 -55.9773 -17.6138 1.08232 -1.70705 -9.4725 -23.862 -171.728 32.5847 -11.7107 -3.83203 -59.9771 -8.08986 6.94029 60.3798 -7.22862 -0.965257 26.367 -3.6023 178.767 -1.03295 2.53389 6.47715 -21.4729 5.14251 -17.4299 78.9003 15.425 0.963545 26.3682 3.55536 
279.462 96.6186 55.1931 1.6177 2.63703 -177.52 0.938154 -4.14961 2.17205 1.77091 5.67967 4.07781 1.29174 12.2572 4.15365 -0.0535213 -1.7048 -3.16802 0.0558351 -9.17094 -3.20425 -105.944 -19.4638 89.1019 14.524 55.0404 39.6831 30.3176 -14.084 -0.667219 -13.6151 -8.91869 5.8498 104.222 -15.3073 -90.1605 -40.4464 53.3178 -16.326 -61.4076 -16.229 1.02256 -2.38666 -9.12845 -27.2114 -172.489 33.0363 -10.9795 -3.41077 -48.6288 -7.35677 7.14848 59.8319 -7.08031 -0.965257 26.367 -3.6023 178.53 -4.79484 1.54616 6.90166 -19.0327 5.85616 -21.6475 79.7115 20.0452 0.963545 26.3682 3.55536 
279.071 96.0707 51.7738 1.60912 2.45872 -176.46 0.853399 -3.98475 2.25748 1.59121 6.00786 4.27227 1.08856 12.5837 4.35455 -0.449489 -1.29133 -3.35674 0.869317 -9.62923 -3.60266 -105.67 -18.6851 89.3028 14.1632 53.3892 38.7855 22.5747 -12.7823 -0.629684 -15.8286 -4.44001 8.61702 103.771 -15.0762 -90.2139 -42.9228 51.131 -10.8626 -65.8928 -14.6666 0.95195 -2.56508 -7.86439 -28.0111 -173.493 32.227 -9.65331 -2.95423 -34.6873 -6.11583 4.94443 57.9511 -6.24758 -0.965257 26.367 -3.6023 178.616 -7.93609 0.52301 7.19136 -17.2158 6.82619 -27.2516 80.3344 26.1271 0.963545 26.3682 3.55536 
278.592 95.2987 48.1781 1.71136 2.40182 -175.257 0.786688 -3.81375 2.22828 1.45332 6.34733 4.23207 0.954739 12.9235 4.31657 -0.427587 -0.646721 -3.50273 0.753901 -10.098 -3.73479 -105.356 -18.2613 89.4157 12.9405 51.4234 38.5742 19.3877 -11.905 -0.589421 -18.1559 -0.0714791 21.0745 103.21 -14.9141 -90.2509 -44.2291 49.8565 -5.51239 -69.0003 -13.0333 0.878985 -3.29325 -7.5363 -27.9968 -174.863 31.2996 -6.22903 -2.92346 -22.3851 -4.63573 5.11196 56.4698 -4.51917 -0.965257 26.367 -3.6023 178.823 -10.4874 0.314297 7.35395 -17.0953 7.50988 -32.7887 81.2568 32.2586 0.963545 26.3682 3.55536 
277.961 94.4338 44.4384 1.86298 2.42895 -174.561 0.72287 -3.61905 2.23474 1.31832 6.73453 4.26284 0.815344 13.3104 4.35137 -0.400668 -0.231089 -3.54805 0.929001 -9.98598 -3.80329 -104.792 -18.3915 89.4049 10.8406 49.5258 40.4925 21.0631 -12.0647 -0.599198 -18.4598 2.67053 39.8338 102.916 -14.8547 -90.2641 -44.6452 49.0134 -1.28282 -70.7099 -11.847 0.828653 -3.76916 -8.19481 -26.3625 -175.333 30.8241 -2.24425 -3.44677 -15.4758 -5.14625 5.91062 56.6052 -5.40949 -0.965257 26.367 -3.6023 178.875 -12.4205 0.704121 7.31094 -18.4721 7.57345 -35.8188 82.3282 36.0842 0.963545 26.3682 3.55536 
277.163 93.6135 40.5672 1.38503 2.51301 -173.585 0.554913 -3.46612 2.18934 0.978094 7.03439 4.22217 0.479319 13.6106 4.31239 -0.810068 0.327924 -3.67889 1.49149 -8.98674 -4.1244 -104.086 -18.3766 89.4333 9.99706 48.1464 45.1941 22.357 -12.3867 -0.613507 -16.6495 5.33929 51.0928 103.105 -14.8852 -90.2573 -43.1085 49.0592 0.699977 -71.5369 -11.8241 0.823523 -3.53933 -9.10084 -25.5184 -177.115 31.3623 -2.098 -3.43569 -16.536 -7.44558 10.1095 59.6718 -9.10795 -0.965257 26.367 -3.6023 178.156 -13.6259 2.35826 6.91423 -21.6741 6.97987 -30.8655 82.9924 32.3888 0.963545 26.3682 3.55536 
276.188 92.7966 36.3692 1.16731 2.71628 -172.425 0.447883 -3.38441 2.09286 0.765967 7.1936 4.06113 0.285917 13.7712 4.14927 -1.22534 1.22502 -3.77964 2.31317 -8.32533 -4.47157 -103.581 -18.4267 89.4401 9.77847 47.3426 50.3618 22.8311 -13.1758 -0.645594 -13.7104 7.60036 52.5287 103.764 -15.0802 -90.2131 -40.527 50.0322 1.67105 -71.0417 -12.2073 0.840591 -2.9333 -10.3726 -24.2519 -178.198 32.3569 -9.31371 -1.5625 -22.802 -4.65317 8.75349 58.9404 -5.28017 -0.965257 26.367 -3.6023 177.505 -13.611 3.89892 6.81749 -27.1012 6.79883 -17.8384 80.7926 20.0279 0.963545 26.3682 3.55536 
275.253 92.3549 32.3239 0.0173755 2.68626 -171.518 0.143536 -3.37382 1.98521 0.159722 7.20441 3.93858 -0.305778 13.783 4.02392 -1.40208 2.53591 -3.98217 2.62029 -7.93089 -4.79976 -103.396 -18.4796 89.4352 9.72481 47.0961 52.2382 23.256 -12.7284 -0.627487 -12.4141 6.73229 46.4748 104.884 -15.8713 -90.0267 -38.4474 50.9742 -0.0328493 -67.3603 -13.9232 0.918718 -2.92338 -12.709 -20.5493 179.794 31.8573 -12.7741 -0.772281 -25.5881 -1.36498 11.1527 54.5074 0.625372 -0.965257 26.367 -3.6023 175.998 -11.9511 6.26087 5.14057 -34.4216 5.46578 -5.8362 75.2508 8.75879 0.963545 26.3682 3.55536 
274.254 92.26 28.4657 -1.83735 2.24159 -170.071 -0.319506 -3.42629 1.58277 -0.745364 7.0859 3.27266 -1.13176 13.6694 3.34247 -1.89049 3.90862 -3.91886 2.98123 -7.73604 -4.95507 -103.743 -18.499 89.4183 9.41779 47.434 51.7403 23.6462 -12.1567 -0.604713 -12.6615 5.64199 40.1958 105.103 -16.0075 -89.9925 -36.7701 53.0563 -2.33945 -61.4496 -16.4305 1.03062 -1.80157 -13.8794 -17.6916 177.039 31.6827 -9.32537 -1.94691 -29.494 -2.99359 12.7014 56.1803 -0.947464 -0.965257 26.367 -3.6023 173.812 -7.38653 8.07986 2.53227 -45.0152 4.03129 -0.942109 66.5953 4.78951 0.963545 26.3682 3.55536 
273.076 92.3167 24.4224 -3.47155 2.67701 -168.475 -0.771188 -3.23972 1.16795 -1.63402 7.4503 2.58204 -1.93899 14.038 2.63876 -2.09271 5.1404 -3.8706 3.62015 -7.8781 -5.09012 -104.103 -18.0157 89.5141 10.7626 48.0225 49.4942 23.5185 -11.6106 -0.582529 -11.5269 4.57786 34.7191 105.911 -16.2371 -89.9269 -36.4696 55.0274 -3.72117 -53.5458 -18.5352 1.11879 0.646942 -15.0497 -13.5128 175.181 30.241 -5.72387 -4.91931 -33.8018 -5.85081 16.2583 60.6551 -3.82464 -0.965257 26.367 -3.6023 171.629 -1.70965 8.43524 -0.0595195 -58.123 2.82102 0.429082 58.75 4.58267 0.963545 26.3682 3.55536 
